<svg width="18" height="18" viewBox="0 0 18 18" fill="none" xmlns="http://www.w3.org/2000/svg">
<g clip-path="url(#clip0)">
<path d="M18 3.61984C16.8677 3.67203 16.8924 3.66777 16.7644 3.67848L17.435 1.76343C17.435 1.76343 15.3419 2.53343 14.8112 2.67118C13.4176 1.4186 11.3461 1.36325 9.86517 2.27347C8.65242 3.01903 8.00148 4.29935 8.2186 5.79582C5.85832 5.46829 3.86966 4.34947 2.29958 2.4634L1.80299 1.86698L1.43193 2.5484C0.962952 3.40946 0.80722 4.39397 0.993301 5.32053C1.06966 5.70066 1.19943 6.0632 1.3792 6.40268L0.953201 6.23761L0.902664 6.94939C0.85144 7.67243 1.09218 8.51645 1.54674 9.20694C1.67473 9.4014 1.83952 9.61495 2.0484 9.82561L1.82826 9.79183L2.09688 10.6074C2.44995 11.679 3.18329 12.5081 4.13498 12.9689C3.18452 13.3723 2.41672 13.6296 1.15466 14.0448L0 14.4243L1.0665 15.0074C1.47313 15.2298 2.91 15.9723 4.32971 16.1951C7.48553 16.69 11.0386 16.2869 13.4306 14.1327C15.4454 12.3181 16.1065 9.73703 15.9692 7.05101C15.9484 6.64438 16.0598 6.25629 16.2828 5.95842C16.7296 5.362 17.9973 3.62383 18 3.61984V3.61984ZM15.4395 5.32671C15.0691 5.82123 14.8836 6.45281 14.9168 7.10485C15.0554 9.81421 14.3182 11.9153 12.7256 13.3496C10.8652 15.0252 7.86442 15.6828 4.493 15.154C3.88243 15.0583 3.2514 14.8439 2.72914 14.6298C3.78726 14.2657 4.60437 13.9412 5.92396 13.3167L7.7661 12.4448L5.73225 12.3146C4.75804 12.2522 3.94684 11.7801 3.4482 11.0135C3.71297 10.9981 3.96826 10.9553 4.22246 10.8844L6.16223 10.3442L4.20625 9.86516C3.2558 9.63239 2.71403 9.06371 2.42688 8.62755C2.23833 8.34094 2.11514 8.04734 2.04126 7.77666C2.23737 7.82926 2.46602 7.86675 2.83475 7.90328L4.64516 8.08235L3.21075 6.9634C2.17722 6.15727 1.76303 4.94617 2.06667 3.78189C5.29225 7.1275 9.07951 6.87606 9.46074 6.9645C9.37683 6.14945 9.37463 6.14752 9.35266 6.06993C8.86446 4.34412 9.93439 3.46782 10.417 3.17119C11.425 2.5517 13.025 2.45832 14.1332 3.47895C14.3726 3.69922 14.6963 3.78588 14.9992 3.71062C15.2711 3.64305 15.4943 3.5715 15.7128 3.49364L15.2579 4.7925L15.8386 4.79291C15.729 4.93985 15.5976 5.11577 15.4395 5.32671Z" fill="white"/>
</g>
<defs>
<clipPath id="clip0">
<rect width="18" height="18" fill="white"/>
</clipPath>
</defs>
</svg>
